<svg width="20" height="20" viewBox="0 0 20 20" fill="none" xmlns="http://www.w3.org/2000/svg">
<path fill-rule="evenodd" clip-rule="evenodd" d="M10 20C15.5228 20 20 15.5228 20 10C20 4.47715 15.5228 0 10 0C4.47715 0 0 4.47715 0 10C0 15.5228 4.47715 20 10 20ZM6.5 9C7.32843 9 8 8.32843 8 7.5C8 6.67157 7.32843 6 6.5 6C5.67157 6 5 6.67157 5 7.5C5 8.32843 5.67157 9 6.5 9ZM15 7.5C15 8.32843 14.3284 9 13.5 9C12.6716 9 12 8.32843 12 7.5C12 6.67157 12.6716 6 13.5 6C14.3284 6 15 6.67157 15 7.5ZM10 16C7.69162 16 5.72781 14.7478 5 13H15C14.2722 14.7478 12.3084 16 10 16Z" fill="black" fill-opacity="0.5"/>
</svg>
